<?xml version="1.0" encoding="UTF-8" standalone="no"?> <!-- Created with Vectornator for iOS (http://vectornator.io/) --><!DOCTYPE svg PUBLIC "-//W3C//DTD SVG 1.1//EN" "http://www.w3.org/Graphics/SVG/1.1/DTD/svg11.dtd">
<svg style="fill-rule:evenodd;clip-rule:evenodd;stroke-linecap:round;stroke-linejoin:round;" xmlns:vectornator="http://vectornator.io" xmlns:xlink="http://www.w3.org/1999/xlink" xmlns="http://www.w3.org/2000/svg" xml:space="preserve" version="1.1" viewBox="0 0 30 30">
<metadata>
<vectornator:setting key="DisplayWhiteBackground" value="0"/>
<vectornator:setting key="RulersVisible" value="1"/>
<vectornator:setting key="GridSpacing" value="1"/>
<vectornator:setting key="Units" value="Pixels"/>
<vectornator:setting key="DynamicGuides" value="1"/>
<vectornator:setting key="SnapToPoints" value="0"/>
<vectornator:setting key="SnapToGrid" value="0"/>
<vectornator:setting key="SnapToGuides" value="1"/>
<vectornator:setting key="ShowGrid" value="1"/>
<vectornator:setting key="SnapToEdges" value="0"/>
</metadata>
<defs/>
<g id="Layer 1" vectornator:layerName="Layer 1">
<g opacity="1">
<path stroke="#f80000" stroke-width="2" d="M12.4061+24.9879C13.6424+24.9897+14.2597+20.8306+13.4576+16.354C22.678+15.9738+25.9762+14.138+19.8292+13.236C21.4328+13.069+27.7202+10.9202+18.2993+10.4859C21.54+9.79563+25.5839+7.78299+17.4519+7.18165C25.5839+5.71172+18.7433+4.68705+16.415+5.11038C11.6377+5.97898+6.32589+6.5135+6.32589+6.5135L6.32589+14.1324C14.2435+16.1683+9.89589+24.9842+12.4061+24.9879Z" fill="#f80000" stroke-linecap="round" opacity="1" stroke-linejoin="round"/>
<path stroke="#b30000" stroke-width="1" d="M22.3351+13.1372C22.3351+13.1372+21.0176+13.1456+19.6184+13.3264" fill="#f80000" stroke-linecap="round" opacity="1" stroke-linejoin="round"/>
<path stroke="#b30000" stroke-width="1" d="M21.7165+10.073C21.7165+10.073+20.8107+9.90051+18.8562+10.2622" fill="#f80000" stroke-linecap="round" opacity="1" stroke-linejoin="round"/>
<path stroke="#b30000" stroke-width="1" d="M20.9768+6.76132C20.9768+6.76132+20.0006+6.65287+19.0223+6.83533" fill="#f80000" stroke-linecap="round" opacity="1" stroke-linejoin="round"/>
<path stroke="#fec000" stroke-width="1.5" d="M11.3483+24.651L11.2532+23.5729" fill="#fec000" stroke-linecap="round" opacity="1" stroke-linejoin="round"/>
</g>
</g>
</svg>
